<svg xmlns="http://www.w3.org/2000/svg" xmlns:xlink="http://www.w3.org/1999/xlink" width="500" zoomAndPan="magnify" viewBox="0 0 375 374.999991" height="500" preserveAspectRatio="xMidYMid meet" version="1.0"><defs><clipPath id="77fed8f529"><path d="M 96.488281 108 L 225 108 L 225 202 L 96.488281 202 Z M 96.488281 108 " clip-rule="nonzero"/></clipPath></defs><path fill="#ff0000" d="M 224.242188 140.265625 C 231.085938 135.890625 238.375 132.214844 245.960938 129.308594 C 253.148438 126.554688 260.96875 124.480469 268.5 126.082031 C 272.050781 126.835938 275.742188 128.742188 276.9375 132.167969 C 278.5 136.660156 275.027344 141.414062 271.019531 143.972656 C 267.523438 146.207031 263.453125 147.535156 258.835938 148.15625 C 263.054688 150.597656 267.429688 153.179688 270.097656 157.257812 C 272.761719 161.339844 273.105469 167.378906 269.527344 170.6875 C 266.484375 173.503906 261.738281 173.460938 257.742188 172.351562 C 247.945312 169.640625 240.402344 161.9375 233.890625 154.128906 C 230.515625 150.082031 227.277344 145.921875 224.242188 140.265625 " fill-opacity="1" fill-rule="nonzero"/><path fill="#ffdb80" d="M 223.660156 137.117188 C 224.804688 138.585938 226.558594 139.574219 228.410156 139.789062 C 228.714844 139.824219 229.03125 139.84375 229.300781 139.988281 C 229.570312 140.132812 229.773438 140.449219 229.679688 140.738281 C 229.597656 140.988281 229.335938 141.125 229.097656 141.226562 C 226.785156 142.210938 224.132812 142.378906 221.71875 141.683594 C 221.511719 141.625 221.273438 141.523438 221.238281 141.3125 C 221.214844 141.179688 221.285156 141.050781 221.347656 140.933594 C 222.046875 139.683594 222.75 138.4375 223.660156 137.117188 " fill-opacity="1" fill-rule="nonzero"/><g clip-path="url(#77fed8f529)"><path fill="#738cc3" d="M 143.011719 142.90625 C 139.742188 144.503906 136.476562 146.097656 133.207031 147.691406 C 131.417969 148.566406 129.59375 149.449219 127.621094 149.714844 C 123.105469 150.316406 118.910156 147.628906 114.738281 145.804688 C 110.949219 144.144531 106.871094 143.144531 102.742188 142.863281 C 101.878906 142.804688 100.933594 142.800781 100.25 143.332031 C 99.339844 144.035156 99.277344 145.460938 99.8125 146.480469 C 100.351562 147.5 101.335938 148.195312 102.308594 148.816406 C 106.308594 151.363281 110.722656 153.261719 115.328125 154.417969 C 110.792969 153.984375 106.59375 153.515625 102.394531 153.707031 C 100.621094 153.785156 98.816406 153.992188 97.191406 154.714844 C 97.011719 154.796875 96.824219 154.890625 96.710938 155.050781 C 96.488281 155.367188 96.628906 155.8125 96.847656 156.132812 C 97.453125 157.019531 98.53125 157.429688 99.550781 157.761719 C 105.121094 159.59375 110.953125 160.644531 116.816406 160.867188 C 110.757812 161.734375 104.785156 162.871094 99.421875 165.542969 C 98.503906 166 97.492188 166.679688 97.457031 167.703125 C 97.429688 168.40625 97.910156 169.050781 98.515625 169.410156 C 99.117188 169.769531 99.828125 169.890625 100.527344 169.984375 C 106.207031 170.742188 111.964844 169.839844 117.625 168.941406 C 111.210938 170.691406 105.652344 173.027344 100.425781 175.960938 C 99.5625 176.445312 98.574219 177.285156 98.914062 178.214844 C 99.195312 178.980469 100.183594 179.160156 101 179.183594 C 106.339844 179.320312 111.578125 177.84375 116.71875 176.386719 C 112.199219 177.8125 108.734375 180.28125 105.957031 183.367188 C 105.546875 183.820312 105.128906 184.363281 105.191406 184.96875 C 105.324219 186.328125 107.324219 186.304688 108.605469 185.839844 C 116.648438 182.902344 124.117188 178.394531 130.464844 172.648438 C 135.871094 174.855469 141.726562 175.953125 147.5625 175.847656 C 141.429688 175.726562 135.558594 177.246094 129.769531 178.753906 C 128.390625 179.113281 126.773438 179.707031 126.464844 181.097656 C 126.253906 182.046875 126.796875 183.039062 127.566406 183.632812 C 128.339844 184.226562 129.304688 184.503906 130.25 184.746094 C 136.5625 186.371094 143.085938 187.1875 149.609375 187.160156 C 141.890625 186.882812 134.660156 187.714844 127.71875 189.609375 C 125.898438 190.105469 124.023438 190.71875 122.691406 192.058594 C 121.359375 193.394531 120.78125 195.664062 121.882812 197.195312 C 122.6875 198.3125 124.121094 198.753906 125.460938 199.074219 C 136.101562 201.625 147.195312 201.007812 158.132812 201.175781 C 164.535156 201.277344 170.953125 201.652344 177.339844 201.183594 C 183.726562 200.714844 190.160156 199.363281 195.742188 196.226562 C 201.332031 193.09375 206.015625 188.019531 207.738281 181.851562 C 209.457031 175.683594 207.816406 168.453125 202.945312 164.296875 C 206.472656 160.816406 209.253906 157.363281 211.351562 153.53125 C 212.816406 150.863281 214.007812 147.929688 216.292969 145.921875 C 217.777344 144.613281 219.625 143.796875 221.265625 142.691406 C 222.90625 141.585938 224.429688 140.023438 224.691406 138.0625 C 225.085938 135.128906 222.410156 132.515625 219.535156 131.828125 C 216.65625 131.140625 213.652344 131.84375 210.753906 132.421875 C 206.761719 133.21875 202.722656 133.769531 198.667969 134.074219 C 196.496094 134.238281 194.023438 134.222656 193.042969 132.617188 C 194.019531 129.070312 195.003906 125.390625 194.414062 121.757812 C 193.472656 115.976562 188.554688 111.417969 183.019531 109.503906 C 177.484375 107.585938 171.421875 107.902344 165.636719 108.820312 C 150.011719 111.296875 134.734375 117.960938 118.992188 116.347656 C 118.265625 116.273438 117.503906 116.183594 116.816406 116.433594 C 116.128906 116.683594 115.542969 117.398438 115.703125 118.109375 C 115.804688 118.558594 116.164062 118.894531 116.507812 119.195312 C 122 123.972656 129.292969 126.621094 136.570312 126.476562 C 132.621094 126.546875 128.675781 126.617188 124.726562 126.6875 C 123.378906 126.714844 121.65625 127.03125 121.394531 128.355469 C 121.136719 129.671875 122.609375 130.621094 123.863281 131.089844 C 128.597656 132.871094 133.675781 133.71875 138.597656 133.179688 C 135.023438 133.632812 131.445312 134.089844 127.867188 134.546875 C 127.457031 134.597656 127.015625 134.667969 126.738281 134.96875 C 126.535156 135.191406 126.460938 135.5 126.457031 135.800781 C 126.445312 136.648438 126.960938 137.4375 127.628906 137.964844 C 128.296875 138.488281 129.109375 138.796875 129.90625 139.082031 C 134.355469 140.675781 138.910156 141.96875 143.011719 142.90625 " fill-opacity="1" fill-rule="nonzero"/></g><path fill="#000000" d="M 219.4375 139.410156 C 219.671875 139.222656 220.019531 139.121094 220.136719 138.828125 C 220.273438 138.457031 219.839844 138.089844 219.496094 138.285156 C 217.449219 139.875 215.765625 139.042969 216.21875 137.824219 C 216.507812 137.449219 216.316406 136.90625 215.796875 136.984375 C 215.46875 137.066406 215.378906 137.453125 215.28125 137.734375 C 214.988281 138.773438 215.738281 139.839844 216.785156 140.011719 C 217.703125 140.226562 218.65625 139.894531 219.4375 139.410156 " fill-opacity="1" fill-rule="nonzero"/><path fill="#000000" d="M 140.3125 126.5 C 140.707031 126.445312 141.101562 126.382812 141.496094 126.3125 C 145.851562 125.546875 149.984375 123.851562 154.355469 123.183594 C 157.257812 122.664062 159.828125 122.5 162.914062 122.839844 C 163.679688 122.933594 164.433594 123.070312 165.191406 123.203125 C 165.3125 123.210938 165.433594 123.164062 165.523438 123.085938 C 165.820312 122.832031 165.632812 122.292969 165.238281 122.289062 C 160.351562 121.246094 155.3125 121.824219 150.507812 123 C 147.046875 123.921875 143.628906 125.070312 140.070312 125.578125 C 139.640625 125.601562 139.484375 126.222656 139.855469 126.445312 C 139.996094 126.535156 140.15625 126.53125 140.3125 126.5 " fill-opacity="1" fill-rule="nonzero"/><path fill="#000000" d="M 154.34375 133.320312 C 156.464844 133.046875 159.121094 133.117188 161.597656 133.414062 C 162.046875 133.464844 162.492188 133.519531 162.941406 133.578125 C 163.0625 133.582031 163.183594 133.539062 163.273438 133.457031 C 163.574219 133.203125 163.386719 132.660156 162.988281 132.65625 C 160.007812 132.25 156.984375 132.027344 153.992188 132.414062 C 152.277344 132.605469 150.074219 133.015625 148.777344 133.109375 C 146.375 133.34375 143.960938 133.332031 141.554688 133.128906 C 141.152344 133.09375 140.898438 133.621094 141.183594 133.914062 C 141.433594 134.160156 141.828125 134.066406 142.148438 134.125 C 146.238281 134.53125 150.304688 133.902344 154.34375 133.320312 " fill-opacity="1" fill-rule="nonzero"/><path fill="#000000" d="M 156.992188 141.695312 C 157.757812 141.5625 158.519531 141.417969 159.28125 141.273438 C 159.398438 141.25 159.5 141.175781 159.566406 141.078125 C 159.796875 140.746094 159.46875 140.269531 159.078125 140.371094 C 154.714844 141.191406 150.902344 141.679688 146.511719 141.441406 C 145.886719 141.414062 145.835938 142.367188 146.464844 142.398438 C 149.984375 142.625 153.515625 142.230469 156.992188 141.695312 " fill-opacity="1" fill-rule="nonzero"/><path fill="#000000" d="M 133.136719 170.757812 C 133.335938 170.589844 133.234375 170.660156 133.574219 170.453125 C 134.707031 169.890625 135.464844 169.578125 136.480469 169.28125 C 138.113281 168.890625 139.796875 168.734375 141.464844 168.5625 C 145.59375 168.152344 150.792969 168.070312 155.378906 168.160156 C 157.375 168.191406 159.371094 168.285156 161.371094 168.296875 C 161.925781 168.324219 161.996094 167.449219 161.410156 167.417969 C 154.886719 167.261719 148.347656 166.988281 141.835938 167.585938 C 140.328125 167.746094 137.3125 167.921875 135.410156 168.621094 C 134.378906 169.035156 133.261719 169.375 132.40625 170.113281 C 132.089844 170.382812 132.289062 170.949219 132.707031 170.957031 C 132.882812 170.960938 133.019531 170.878906 133.136719 170.757812 " fill-opacity="1" fill-rule="nonzero"/><path fill="#000000" d="M 152.863281 175.15625 C 155.117188 174.777344 156.875 174.605469 159.25 174.648438 C 160.148438 174.664062 161.050781 174.703125 161.949219 174.78125 C 162.296875 174.789062 162.664062 174.929688 163.003906 174.851562 C 163.464844 174.710938 163.351562 173.972656 162.867188 173.964844 C 160.203125 173.644531 157.5 173.632812 154.832031 173.929688 C 154.027344 174.023438 153.222656 174.144531 152.425781 174.292969 C 152.203125 174.34375 151.929688 174.339844 151.800781 174.558594 C 151.632812 174.800781 151.761719 175.160156 152.042969 175.25 C 152.3125 175.316406 152.59375 175.179688 152.863281 175.15625 " fill-opacity="1" fill-rule="nonzero"/><path fill="#000000" d="M 154.617188 188.003906 C 157.128906 187.695312 159.078125 187.511719 161.460938 187.371094 C 162.054688 187.335938 162.648438 187.335938 163.246094 187.316406 C 163.371094 187.320312 163.496094 187.277344 163.589844 187.191406 C 163.902344 186.925781 163.703125 186.367188 163.289062 186.359375 C 161.050781 186.394531 158.816406 186.59375 156.585938 186.820312 C 155.71875 186.914062 154.855469 187.011719 153.992188 187.125 C 153.789062 187.144531 153.566406 187.167969 153.453125 187.363281 C 153.277344 187.613281 153.414062 187.984375 153.703125 188.074219 C 154 188.136719 154.3125 188.019531 154.617188 188.003906 " fill-opacity="1" fill-rule="nonzero"/><path fill="#000000" d="M 125.835938 157.242188 C 125.949219 157.039062 125.859375 156.773438 125.671875 156.648438 C 125.492188 156.539062 125.269531 156.570312 125.070312 156.53125 C 124.472656 156.460938 123.878906 156.371094 123.285156 156.273438 C 121.179688 155.976562 118.785156 155.472656 117.515625 154.347656 C 117.441406 154.292969 117.238281 154.035156 117.191406 153.980469 C 117.179688 153.953125 117.164062 153.929688 117.152344 153.90625 C 117.152344 153.898438 117.148438 153.890625 117.148438 153.882812 C 117.402344 153.265625 118.433594 152.886719 119.796875 152.972656 C 121.207031 153 123.03125 153.113281 124.007812 153.355469 C 124.597656 153.546875 124.894531 152.644531 124.304688 152.445312 C 123.089844 152.15625 121.828125 152.105469 120.585938 152.035156 C 119.582031 152.027344 118.53125 151.910156 117.585938 152.3125 C 116.089844 152.996094 115.628906 154.117188 117.066406 155.226562 C 118.898438 156.609375 121.242188 156.921875 123.449219 157.265625 C 123.992188 157.347656 124.535156 157.425781 125.082031 157.480469 C 125.355469 157.519531 125.714844 157.550781 125.835938 157.242188 " fill-opacity="1" fill-rule="nonzero"/><path fill="#000000" d="M 125.96875 162.777344 C 125.929688 162.78125 125.886719 162.78125 125.847656 162.785156 C 125.886719 162.785156 125.925781 162.777344 125.96875 162.777344 " fill-opacity="1" fill-rule="nonzero"/><path fill="#000000" d="M 124.898438 162.851562 C 125.214844 162.839844 125.53125 162.816406 125.847656 162.785156 C 126.035156 162.792969 126.234375 162.691406 126.304688 162.511719 C 126.421875 162.308594 126.332031 162.035156 126.140625 161.90625 C 125.878906 161.753906 125.554688 161.886719 125.269531 161.871094 C 124.582031 161.898438 123.898438 161.898438 123.214844 161.894531 C 121.671875 161.890625 119.757812 161.578125 118.925781 161.234375 C 118.84375 161.214844 118.625 161.066406 118.542969 161.015625 C 118.527344 161 118.511719 160.984375 118.5 160.96875 C 118.675781 160.605469 119.929688 160.246094 121.179688 160.070312 C 122.65625 159.804688 123.6875 159.753906 124.976562 159.667969 C 125.460938 159.519531 125.34375 158.746094 124.835938 158.742188 C 123.574219 158.753906 122.3125 158.914062 121.066406 159.117188 C 120.101562 159.292969 119.066406 159.394531 118.222656 159.925781 C 117.628906 160.261719 117.25 161.039062 117.761719 161.613281 C 118.476562 162.308594 119.550781 162.445312 120.496094 162.625 C 121.949219 162.882812 123.425781 162.90625 124.898438 162.851562 " fill-opacity="1" fill-rule="nonzero"/><path fill="#000000" d="M 122.359375 169.472656 C 123.855469 169.425781 125.324219 169.078125 126.789062 168.78125 C 127.167969 168.699219 127.550781 168.617188 127.929688 168.519531 C 128.152344 168.488281 128.398438 168.359375 128.421875 168.109375 C 128.480469 167.886719 128.324219 167.648438 128.109375 167.578125 C 127.808594 167.507812 127.5 167.675781 127.199219 167.710938 C 126.359375 167.886719 125.519531 168.054688 124.675781 168.207031 C 123.109375 168.53125 121.351562 168.617188 120.054688 168.3125 C 119.324219 168.132812 119.238281 167.921875 119.179688 167.855469 C 119.113281 167.59375 119.84375 166.90625 120.457031 166.730469 C 122.046875 166.160156 123.695312 165.785156 125.34375 165.421875 C 125.953125 165.285156 125.746094 164.355469 125.132812 164.488281 C 123.761719 164.792969 122.386719 165.089844 121.046875 165.519531 C 120.285156 165.761719 119.484375 165.992188 118.886719 166.550781 C 118.347656 167.003906 117.929688 167.878906 118.429688 168.5 C 119.417969 169.539062 121.03125 169.441406 122.359375 169.472656 " fill-opacity="1" fill-rule="nonzero"/><path fill="#000000" d="M 126 175.652344 C 126.515625 175.417969 127.027344 175.171875 127.53125 174.914062 C 127.773438 174.808594 128.0625 174.636719 128.011719 174.332031 C 127.96875 173.851562 127.441406 173.804688 127.113281 174.054688 C 126.761719 174.230469 126.40625 174.398438 126.050781 174.5625 C 123.761719 175.621094 121.691406 176.625 119.695312 175.972656 C 117.171875 175.230469 120.066406 173.625 122.820312 172.488281 C 123.769531 172.089844 124.40625 171.957031 125.515625 171.59375 C 125.945312 171.328125 125.628906 170.617188 125.144531 170.746094 C 123.507812 171.144531 121.9375 171.769531 120.4375 172.53125 C 119.53125 173.03125 118.511719 173.515625 117.96875 174.445312 C 117.082031 176.046875 119.011719 177 120.359375 177.097656 C 122.359375 177.378906 124.226562 176.449219 126 175.652344 " fill-opacity="1" fill-rule="nonzero"/><path fill="#fff7e1" d="M 209.261719 136.289062 C 209.613281 136.128906 210.085938 136.125 210.339844 135.820312 C 210.578125 135.480469 210.234375 134.988281 209.832031 135.089844 C 208.609375 135.582031 206.378906 136.039062 205.546875 136.058594 C 204.925781 136.027344 204.878906 136.976562 205.503906 137.007812 C 206.78125 136.921875 208.046875 136.699219 209.261719 136.289062 " fill-opacity="1" fill-rule="nonzero"/><path fill="#fff7e1" d="M 202.910156 137.878906 C 203.394531 137.734375 203.273438 136.96875 202.773438 136.960938 C 201.386719 136.945312 199.992188 136.945312 198.609375 136.816406 C 197.992188 136.789062 197.945312 137.730469 198.5625 137.761719 C 200.003906 137.882812 201.476562 137.957031 202.910156 137.878906 " fill-opacity="1" fill-rule="nonzero"/><path fill="#fff7e1" d="M 205.640625 139.523438 C 206.324219 139.355469 206.992188 139.125 207.644531 138.867188 C 207.988281 138.683594 208.53125 138.683594 208.691406 138.277344 C 208.835938 137.878906 208.367188 137.484375 208 137.691406 C 206.988281 138.070312 206.59375 138.265625 205.625 138.519531 C 205.265625 138.664062 204.773438 138.613281 204.519531 138.933594 C 204.34375 139.191406 204.480469 139.566406 204.773438 139.660156 C 205.0625 139.734375 205.355469 139.570312 205.640625 139.523438 " fill-opacity="1" fill-rule="nonzero"/><path fill="#fff7e1" d="M 129.074219 192.296875 C 132.15625 191.351562 135.109375 190.917969 138.070312 190.832031 C 140.570312 190.734375 143.070312 190.738281 145.566406 190.632812 C 145.960938 190.566406 146.464844 190.695312 146.800781 190.464844 C 147.097656 190.214844 146.910156 189.683594 146.519531 189.675781 C 142.773438 189.902344 139.007812 189.75 135.269531 190.109375 C 132.902344 190.347656 130.570312 190.867188 128.3125 191.597656 C 127.9375 191.667969 127.839844 192.207031 128.167969 192.40625 C 128.457031 192.585938 128.777344 192.351562 129.074219 192.296875 " fill-opacity="1" fill-rule="nonzero"/><path fill="#fff7e1" d="M 155.066406 190.375 C 155.675781 190.40625 155.722656 189.472656 155.109375 189.4375 C 153.496094 189.40625 151.863281 189.441406 150.261719 189.621094 C 149.792969 189.761719 149.910156 190.503906 150.394531 190.511719 C 151.949219 190.40625 153.507812 190.324219 155.066406 190.375 " fill-opacity="1" fill-rule="nonzero"/><path fill="#fff7e1" d="M 135.582031 180.101562 C 137.988281 179.507812 141.363281 178.929688 143.371094 178.800781 C 145.09375 178.652344 146.820312 178.617188 148.539062 178.503906 C 149.132812 178.53125 149.183594 177.621094 148.585938 177.589844 C 145.921875 177.742188 143.246094 177.8125 140.601562 178.191406 C 138.679688 178.527344 136.714844 178.828125 134.855469 179.402344 C 134.59375 179.558594 134.609375 179.976562 134.863281 180.132812 C 135.089844 180.28125 135.34375 180.148438 135.582031 180.101562 " fill-opacity="1" fill-rule="nonzero"/><path fill="#fff7e1" d="M 153.851562 177.9375 C 154.863281 177.785156 155.265625 177.789062 156.3125 177.726562 C 156.925781 177.757812 156.972656 176.816406 156.355469 176.785156 C 155.144531 176.875 153.859375 176.847656 152.699219 177.242188 C 152.378906 177.4375 152.46875 177.960938 152.820312 178.066406 C 153.160156 178.128906 153.507812 177.957031 153.851562 177.9375 " fill-opacity="1" fill-rule="nonzero"/><path fill="#fff7e1" d="M 142.851562 171.480469 C 144.925781 171.238281 146.4375 171.097656 148.585938 171.050781 C 149.148438 171.066406 149.710938 171.121094 150.273438 171.171875 C 150.390625 171.179688 150.511719 171.132812 150.601562 171.050781 C 150.902344 170.796875 150.710938 170.261719 150.316406 170.257812 C 148.445312 170.019531 146.566406 170.207031 144.695312 170.359375 C 144.460938 170.378906 143.152344 170.515625 142.488281 170.601562 C 142.179688 170.671875 141.761719 170.585938 141.558594 170.878906 C 141.394531 171.125 141.523438 171.480469 141.800781 171.566406 C 142.144531 171.625 142.503906 171.496094 142.851562 171.480469 " fill-opacity="1" fill-rule="nonzero"/><path fill="#fff7e1" d="M 134.726562 136.625 C 137.292969 136.332031 140.769531 136.390625 143.753906 136.316406 C 144.792969 136.292969 145.832031 136.28125 146.871094 136.261719 C 146.992188 136.265625 147.113281 136.222656 147.203125 136.140625 C 147.5 135.886719 147.3125 135.351562 146.914062 135.34375 C 144.539062 135.378906 142.160156 135.445312 139.78125 135.457031 C 138.46875 135.476562 137.152344 135.503906 135.839844 135.617188 C 135.273438 135.703125 134.644531 135.636719 134.109375 135.839844 C 133.84375 136 133.859375 136.429688 134.121094 136.585938 C 134.308594 136.710938 134.523438 136.636719 134.726562 136.625 " fill-opacity="1" fill-rule="nonzero"/><path fill="#fff7e1" d="M 129.054688 129.617188 C 129.117188 129.617188 129.160156 129.613281 129.144531 129.613281 C 132.707031 129.328125 136.292969 129.210938 139.835938 128.710938 C 142.148438 128.328125 144.507812 127.988281 146.734375 127.25 C 147.140625 127 146.84375 126.320312 146.378906 126.441406 C 140.488281 128.128906 134.925781 128.28125 128.960938 128.734375 C 128.53125 128.816406 128.492188 129.46875 128.921875 129.597656 C 128.953125 129.613281 129.007812 129.617188 129.054688 129.617188 " fill-opacity="1" fill-rule="nonzero"/><path fill="#fff7e1" d="M 125.699219 118.949219 C 126.835938 118.609375 128.648438 118.589844 130.332031 118.535156 C 132.042969 118.476562 133.753906 118.34375 135.457031 118.175781 C 138.472656 117.863281 141.464844 117.328125 144.4375 116.738281 C 145.011719 116.609375 144.828125 115.71875 144.238281 115.847656 C 140.539062 116.589844 136.5 117.242188 133.113281 117.460938 C 130.585938 117.726562 127.992188 117.476562 125.5 118.039062 C 125.277344 118.121094 125.007812 118.203125 124.933594 118.453125 C 124.789062 118.914062 125.328125 119.234375 125.699219 118.949219 " fill-opacity="1" fill-rule="nonzero"/><path fill="#fff7e1" d="M 148.386719 115.976562 C 149.152344 115.765625 149.90625 115.507812 150.667969 115.28125 C 150.90625 115.1875 151.21875 115.191406 151.371094 114.957031 C 151.601562 114.628906 151.269531 114.15625 150.882812 114.253906 C 149.800781 114.566406 148.738281 114.929688 147.652344 115.234375 C 147.230469 115.273438 147.0625 115.851562 147.433594 116.085938 C 147.734375 116.265625 148.074219 116.035156 148.386719 115.976562 " fill-opacity="1" fill-rule="nonzero"/><path fill="#fff7e1" d="M 151.746094 127.203125 C 152.363281 127.089844 152.984375 127.023438 153.605469 126.960938 C 153.972656 126.875 154.484375 127.011719 154.734375 126.671875 C 154.96875 126.335938 154.632812 125.851562 154.234375 125.953125 C 153.320312 126.046875 152.402344 126.117188 151.496094 126.292969 C 151.265625 126.359375 150.992188 126.34375 150.789062 126.476562 C 150.589844 126.597656 150.539062 126.871094 150.640625 127.070312 C 150.867188 127.5 151.378906 127.242188 151.746094 127.203125 " fill-opacity="1" fill-rule="nonzero"/><path fill="#fff7e1" d="M 115.773438 148.667969 C 116.113281 148.503906 116.070312 147.960938 115.707031 147.855469 C 113.960938 147.199219 112.179688 146.65625 110.390625 146.132812 C 109.09375 145.78125 107.582031 145.296875 106.257812 145.261719 C 105.964844 145.34375 105.871094 145.757812 106.078125 145.972656 C 106.285156 146.179688 106.605469 146.128906 106.871094 146.199219 C 108.613281 146.480469 111.152344 147.28125 113.21875 147.917969 C 113.964844 148.15625 114.695312 148.4375 115.433594 148.695312 C 115.542969 148.734375 115.667969 148.722656 115.773438 148.667969 " fill-opacity="1" fill-rule="nonzero"/><path fill="#fff7e1" d="M 107.515625 155.910156 C 109.015625 156.007812 110.519531 156.121094 112 156.390625 C 112.582031 156.417969 112.628906 155.527344 112.042969 155.496094 C 110.148438 155.164062 108.226562 155.035156 106.308594 154.957031 C 105.816406 154.945312 105.324219 154.941406 104.832031 154.953125 C 104.605469 154.945312 104.324219 154.96875 104.230469 155.214844 C 104.125 155.40625 104.207031 155.660156 104.386719 155.777344 C 104.660156 155.925781 105 155.8125 105.300781 155.839844 C 106.039062 155.835938 106.777344 155.863281 107.515625 155.910156 " fill-opacity="1" fill-rule="nonzero"/><path fill="#fff7e1" d="M 104.25 165.964844 C 104.988281 165.703125 105.734375 165.46875 106.480469 165.234375 C 107.140625 165.03125 107.800781 164.816406 108.480469 164.6875 C 108.863281 164.582031 109.300781 164.617188 109.65625 164.445312 C 110.0625 164.191406 109.765625 163.523438 109.304688 163.644531 C 107.808594 163.824219 106.382812 164.324219 104.953125 164.785156 C 104.492188 164.9375 104.03125 165.097656 103.574219 165.269531 C 103.316406 165.34375 102.996094 165.492188 103.046875 165.816406 C 103.222656 166.585938 103.960938 166.023438 104.25 165.964844 " fill-opacity="1" fill-rule="nonzero"/><path fill="#fff7e1" d="M 105.195312 176.4375 C 105.914062 176.046875 106.632812 175.664062 107.351562 175.285156 C 108.6875 174.546875 109.539062 174.207031 110.960938 173.808594 C 111.535156 173.675781 111.339844 172.800781 110.765625 172.925781 C 109.21875 173.324219 107.78125 173.984375 106.394531 174.765625 C 105.855469 175.054688 105.316406 175.34375 104.78125 175.636719 C 104.675781 175.691406 104.597656 175.785156 104.558594 175.898438 C 104.425781 176.261719 104.855469 176.628906 105.195312 176.4375 " fill-opacity="1" fill-rule="nonzero"/><path fill="#fff7e1" d="M 110.636719 181.417969 C 111.191406 181.074219 111.746094 180.734375 112.308594 180.402344 C 112.984375 179.992188 113.6875 179.625 114.417969 179.316406 C 114.808594 179.113281 115.285156 179.027344 115.625 178.746094 C 115.960938 178.394531 115.492188 177.804688 115.066406 178.046875 C 113.484375 178.660156 112 179.464844 110.578125 180.382812 C 110.28125 180.570312 109.984375 180.753906 109.691406 180.941406 C 109.535156 181.019531 109.421875 181.203125 109.453125 181.378906 C 109.457031 181.601562 109.660156 181.78125 109.878906 181.796875 C 110.167969 181.792969 110.386719 181.542969 110.636719 181.417969 " fill-opacity="1" fill-rule="nonzero"/><path fill="#fff7e1" d="M 201.691406 140.246094 C 201.988281 140.21875 202.300781 140.261719 202.585938 140.191406 C 203.0625 140.046875 202.945312 139.289062 202.449219 139.285156 C 202.066406 139.296875 201.683594 139.3125 201.296875 139.324219 C 200.894531 139.289062 200.648438 139.816406 200.929688 140.105469 C 201.125 140.328125 201.429688 140.242188 201.691406 140.246094 " fill-opacity="1" fill-rule="nonzero"/><path fill="#fff7e1" d="M 195.917969 136.699219 C 196.226562 136.4375 196.027344 135.882812 195.621094 135.878906 C 195.144531 135.890625 194.644531 135.761719 194.179688 135.835938 C 193.699219 135.980469 193.820312 136.742188 194.316406 136.746094 C 194.734375 136.785156 195.15625 136.800781 195.574219 136.824219 C 195.699219 136.832031 195.824219 136.785156 195.917969 136.699219 " fill-opacity="1" fill-rule="nonzero"/><path fill="#fff7e1" d="M 157.011719 113.644531 C 157.511719 113.503906 158.019531 113.386719 158.539062 113.324219 C 158.851562 113.253906 159.214844 113.308594 159.496094 113.148438 C 159.917969 112.890625 159.605469 112.199219 159.132812 112.320312 C 158.300781 112.4375 157.425781 112.492188 156.648438 112.816406 C 156.230469 113.074219 156.539062 113.765625 157.011719 113.644531 " fill-opacity="1" fill-rule="nonzero"/><path fill="#fff7e1" d="M 147.492188 118.789062 C 148.394531 118.414062 149.265625 118.359375 150.039062 118.09375 C 150.457031 117.835938 150.148438 117.144531 149.675781 117.269531 C 148.292969 117.480469 146.992188 118 145.675781 118.449219 C 145.363281 118.570312 145.007812 118.585938 144.71875 118.742188 C 144.40625 118.929688 144.492188 119.441406 144.835938 119.542969 C 145.679688 119.554688 146.671875 119.03125 147.492188 118.789062 " fill-opacity="1" fill-rule="nonzero"/><path fill="#fff7e1" d="M 147.214844 181.308594 C 149.15625 181.089844 151.160156 181.011719 153.058594 180.636719 C 153.472656 180.378906 153.167969 179.695312 152.699219 179.816406 C 151.210938 179.984375 149.726562 180.15625 148.234375 180.300781 C 147.828125 180.339844 147.421875 180.378906 147.015625 180.417969 C 146.898438 180.441406 146.796875 180.515625 146.734375 180.613281 C 146.507812 180.9375 146.832031 181.40625 147.214844 181.308594 " fill-opacity="1" fill-rule="nonzero"/><path fill="#fff7e1" d="M 145.496094 193.6875 C 146.183594 193.65625 146.871094 193.628906 147.5625 193.589844 C 148.871094 193.484375 150.195312 193.4375 151.496094 193.328125 C 151.957031 193.1875 151.84375 192.457031 151.363281 192.449219 C 149.644531 192.511719 147.933594 192.679688 146.21875 192.742188 C 145.773438 192.765625 145.332031 192.78125 144.886719 192.800781 C 144.710938 192.792969 144.523438 192.894531 144.457031 193.0625 C 144.347656 193.257812 144.433594 193.519531 144.617188 193.644531 C 144.878906 193.792969 145.207031 193.671875 145.496094 193.6875 " fill-opacity="1" fill-rule="nonzero"/><path fill="#fff7e1" d="M 267.6875 143.761719 C 268.753906 143.210938 269.828125 142.667969 270.769531 141.921875 C 271.976562 141.085938 273.105469 140.125 273.929688 138.898438 C 276.0625 135.28125 274.847656 132.574219 271.613281 130.28125 C 267.644531 127.667969 262.609375 127.707031 258.070312 128.355469 C 256.464844 128.550781 254.871094 128.800781 253.300781 129.175781 C 252.957031 129.292969 252.503906 129.246094 252.265625 129.550781 C 252.101562 129.792969 252.226562 130.152344 252.507812 130.242188 C 253.027344 130.28125 253.675781 130.011719 254.210938 129.945312 C 255.441406 129.679688 256.679688 129.5 257.925781 129.34375 C 261.863281 128.75 266.5 128.644531 270.058594 130.492188 C 272.050781 131.597656 273.796875 133.144531 274.03125 135.140625 C 274.144531 135.601562 273.738281 137.390625 273.390625 137.949219 C 272.925781 138.757812 272.550781 139.183594 272.050781 139.699219 C 270.972656 140.707031 269.882812 141.492188 268.855469 142.121094 C 268.335938 142.417969 267.800781 142.683594 267.273438 142.960938 C 267.167969 143.015625 267.089844 143.109375 267.054688 143.222656 C 266.917969 143.585938 267.347656 143.953125 267.6875 143.761719 " fill-opacity="1" fill-rule="nonzero"/><path fill="#fff7e1" d="M 248.804688 131.367188 C 249.238281 131.210938 249.679688 131.082031 250.121094 130.949219 C 250.242188 130.921875 250.347656 130.84375 250.417969 130.742188 C 250.652344 130.402344 250.3125 129.914062 249.910156 130.015625 C 249.144531 130.238281 248.382812 130.488281 247.640625 130.785156 C 247.269531 130.964844 247.320312 131.550781 247.710938 131.667969 C 248.105469 131.75 248.785156 131.320312 248.804688 131.367188 " fill-opacity="1" fill-rule="nonzero"/></svg>