<svg xmlns="http://www.w3.org/2000/svg" xmlns:xlink="http://www.w3.org/1999/xlink" width="500" zoomAndPan="magnify" viewBox="0 0 375 374.999991" height="500" preserveAspectRatio="xMidYMid meet" version="1.0"><defs><clipPath id="2ce05734fe"><path d="M 7.152344 62 L 267 62 L 267 251.792969 L 7.152344 251.792969 Z M 7.152344 62 " clip-rule="nonzero"/></clipPath></defs><path fill="#ff0000" d="M 265.332031 127.460938 C 279.164062 118.621094 293.894531 111.191406 309.222656 105.320312 C 323.753906 99.757812 339.558594 95.558594 354.777344 98.796875 C 361.949219 100.320312 369.414062 104.171875 371.828125 111.097656 C 374.988281 120.171875 367.972656 129.785156 359.871094 134.957031 C 352.800781 139.46875 344.578125 142.15625 335.246094 143.410156 C 343.773438 148.339844 352.613281 153.5625 358 161.804688 C 363.386719 170.050781 364.085938 182.257812 356.855469 188.945312 C 350.703125 194.632812 341.117188 194.546875 333.039062 192.308594 C 313.238281 186.824219 297.996094 171.257812 284.835938 155.480469 C 278.011719 147.304688 271.46875 138.894531 265.332031 127.460938 " fill-opacity="1" fill-rule="nonzero"/><path fill="#ffdb80" d="M 264.15625 121.097656 C 266.476562 124.070312 270.015625 126.0625 273.761719 126.5 C 274.375 126.570312 275.011719 126.605469 275.554688 126.898438 C 276.101562 127.191406 276.515625 127.832031 276.324219 128.421875 C 276.160156 128.921875 275.632812 129.199219 275.144531 129.40625 C 270.476562 131.398438 265.117188 131.730469 260.238281 130.328125 C 259.820312 130.210938 259.335938 130.003906 259.265625 129.574219 C 259.21875 129.308594 259.355469 129.050781 259.488281 128.8125 C 260.902344 126.289062 262.316406 123.765625 264.15625 121.097656 " fill-opacity="1" fill-rule="nonzero"/><g clip-path="url(#2ce05734fe)"><path fill="#738cc3" d="M 101.171875 132.800781 C 94.570312 136.023438 87.964844 139.246094 81.359375 142.472656 C 77.746094 144.234375 74.054688 146.023438 70.070312 146.558594 C 60.945312 147.777344 52.46875 142.34375 44.039062 138.65625 C 36.378906 135.300781 28.136719 133.28125 19.792969 132.714844 C 18.046875 132.59375 16.140625 132.585938 14.757812 133.65625 C 12.914062 135.078125 12.785156 137.960938 13.875 140.023438 C 14.960938 142.082031 16.949219 143.488281 18.914062 144.742188 C 27.003906 149.890625 35.921875 153.730469 45.222656 156.058594 C 36.066406 155.1875 27.578125 154.242188 19.09375 154.625 C 15.503906 154.785156 11.855469 155.203125 8.574219 156.664062 C 8.210938 156.828125 7.835938 157.015625 7.605469 157.34375 C 7.15625 157.984375 7.433594 158.882812 7.875 159.527344 C 9.101562 161.316406 11.28125 162.148438 13.339844 162.824219 C 24.601562 166.527344 36.386719 168.644531 48.230469 169.097656 C 35.992188 170.847656 23.917969 173.144531 13.082031 178.546875 C 11.230469 179.472656 9.183594 180.84375 9.109375 182.914062 C 9.058594 184.332031 10.027344 185.636719 11.25 186.359375 C 12.46875 187.085938 13.90625 187.335938 15.3125 187.523438 C 26.796875 189.050781 38.429688 187.230469 49.871094 185.417969 C 36.910156 188.945312 25.671875 193.667969 15.113281 199.597656 C 13.367188 200.578125 11.367188 202.277344 12.054688 204.15625 C 12.625 205.707031 14.621094 206.066406 16.269531 206.109375 C 27.066406 206.382812 37.648438 203.40625 48.039062 200.457031 C 38.90625 203.34375 31.90625 208.328125 26.285156 214.566406 C 25.460938 215.484375 24.617188 216.578125 24.738281 217.804688 C 25.011719 220.546875 29.050781 220.507812 31.640625 219.5625 C 47.898438 213.625 62.988281 204.519531 75.816406 192.902344 C 86.742188 197.363281 98.578125 199.578125 110.375 199.375 C 97.980469 199.125 86.117188 202.195312 74.410156 205.246094 C 71.625 205.972656 68.359375 207.167969 67.734375 209.976562 C 67.304688 211.898438 68.402344 213.90625 69.964844 215.105469 C 71.523438 216.308594 73.472656 216.859375 75.382812 217.351562 C 88.144531 220.640625 101.328125 222.285156 114.503906 222.234375 C 98.910156 221.671875 84.300781 223.355469 70.269531 227.179688 C 66.59375 228.183594 62.796875 229.425781 60.109375 232.128906 C 57.417969 234.832031 56.25 239.417969 58.476562 242.511719 C 60.101562 244.773438 63 245.664062 65.707031 246.3125 C 87.207031 251.460938 109.628906 250.214844 131.730469 250.558594 C 144.675781 250.761719 157.636719 251.515625 170.546875 250.574219 C 183.457031 249.625 196.453125 246.890625 207.742188 240.554688 C 219.03125 234.222656 228.5 223.972656 231.976562 211.503906 C 235.457031 199.035156 232.140625 184.429688 222.292969 176.03125 C 229.421875 168.996094 235.046875 162.015625 239.289062 154.273438 C 242.242188 148.882812 244.652344 142.953125 249.269531 138.890625 C 252.273438 136.25 256 134.597656 259.316406 132.363281 C 262.632812 130.128906 265.714844 126.976562 266.246094 123.011719 C 267.042969 117.085938 261.636719 111.800781 255.820312 110.410156 C 250.003906 109.019531 243.9375 110.445312 238.074219 111.613281 C 230.007812 113.21875 221.847656 114.335938 213.648438 114.949219 C 209.257812 115.28125 204.261719 115.25 202.285156 112.007812 C 204.257812 104.839844 206.25 97.398438 205.054688 90.0625 C 203.15625 78.375 193.214844 69.167969 182.027344 65.292969 C 170.839844 61.417969 158.589844 62.0625 146.898438 63.914062 C 115.320312 68.921875 84.441406 82.382812 52.636719 79.128906 C 51.164062 78.976562 49.628906 78.796875 48.234375 79.304688 C 46.84375 79.808594 45.660156 81.246094 45.988281 82.691406 C 46.195312 83.589844 46.914062 84.273438 47.613281 84.878906 C 58.707031 94.535156 73.453125 99.886719 88.15625 99.59375 C 80.179688 99.738281 72.199219 99.878906 64.21875 100.023438 C 61.496094 100.074219 58.011719 100.714844 57.492188 103.390625 C 56.96875 106.050781 59.941406 107.96875 62.476562 108.921875 C 72.042969 112.515625 82.308594 114.230469 92.257812 113.140625 C 85.027344 114.058594 77.796875 114.980469 70.570312 115.902344 C 69.742188 116.003906 68.84375 116.148438 68.285156 116.761719 C 67.878906 117.210938 67.726562 117.835938 67.71875 118.4375 C 67.695312 120.15625 68.734375 121.75 70.085938 122.8125 C 71.4375 123.875 73.074219 124.492188 74.691406 125.070312 C 83.679688 128.292969 92.886719 130.90625 101.171875 132.800781 " fill-opacity="1" fill-rule="nonzero"/></g><path fill="#000000" d="M 255.628906 125.738281 C 256.097656 125.355469 256.800781 125.144531 257.042969 124.558594 C 257.3125 123.808594 256.441406 123.070312 255.746094 123.457031 C 251.605469 126.671875 248.203125 124.988281 249.117188 122.53125 C 249.703125 121.769531 249.320312 120.671875 248.269531 120.832031 C 247.601562 121 247.421875 121.777344 247.230469 122.351562 C 246.632812 124.445312 248.148438 126.601562 250.261719 126.949219 C 252.121094 127.386719 254.050781 126.710938 255.628906 125.738281 " fill-opacity="1" fill-rule="nonzero"/><path fill="#000000" d="M 95.71875 99.640625 C 96.519531 99.53125 97.316406 99.402344 98.113281 99.261719 C 106.914062 97.714844 115.261719 94.289062 124.101562 92.9375 C 129.964844 91.894531 135.160156 91.5625 141.398438 92.242188 C 142.941406 92.433594 144.46875 92.710938 146 92.980469 C 146.246094 92.992188 146.484375 92.902344 146.667969 92.742188 C 147.269531 92.226562 146.890625 91.140625 146.089844 91.128906 C 136.21875 89.023438 126.035156 90.195312 116.324219 92.570312 C 109.328125 94.4375 102.421875 96.753906 95.230469 97.785156 C 94.363281 97.828125 94.042969 99.078125 94.796875 99.535156 C 95.078125 99.714844 95.40625 99.707031 95.71875 99.640625 " fill-opacity="1" fill-rule="nonzero"/><path fill="#000000" d="M 124.078125 113.425781 C 128.363281 112.871094 133.726562 113.011719 138.734375 113.613281 C 139.640625 113.71875 140.546875 113.832031 141.453125 113.945312 C 141.699219 113.957031 141.941406 113.867188 142.125 113.707031 C 142.730469 113.1875 142.347656 112.09375 141.542969 112.082031 C 135.523438 111.265625 129.410156 110.8125 123.363281 111.59375 C 119.898438 111.984375 115.449219 112.8125 112.828125 113.003906 C 107.96875 113.476562 103.089844 113.449219 98.226562 113.035156 C 97.414062 112.964844 96.902344 114.035156 97.476562 114.625 C 97.984375 115.121094 98.785156 114.929688 99.429688 115.050781 C 107.695312 115.871094 115.917969 114.601562 124.078125 113.425781 " fill-opacity="1" fill-rule="nonzero"/><path fill="#000000" d="M 129.425781 130.351562 C 130.972656 130.082031 132.511719 129.792969 134.050781 129.5 C 134.289062 129.449219 134.5 129.300781 134.632812 129.101562 C 135.09375 128.4375 134.429688 127.472656 133.644531 127.679688 C 124.824219 129.335938 117.121094 130.316406 108.246094 129.839844 C 106.988281 129.78125 106.882812 131.707031 108.152344 131.773438 C 115.265625 132.230469 122.402344 131.4375 129.425781 130.351562 " fill-opacity="1" fill-rule="nonzero"/><path fill="#000000" d="M 81.21875 189.082031 C 81.617188 188.742188 81.414062 188.890625 82.105469 188.46875 C 84.386719 187.332031 85.925781 186.699219 87.972656 186.105469 C 91.273438 185.308594 94.675781 184.996094 98.046875 184.652344 C 106.394531 183.820312 116.902344 183.65625 126.167969 183.835938 C 130.203125 183.894531 134.238281 184.085938 138.273438 184.109375 C 139.398438 184.167969 139.542969 182.398438 138.359375 182.335938 C 125.175781 182.023438 111.953125 181.464844 98.796875 182.675781 C 95.746094 182.996094 89.65625 183.355469 85.8125 184.765625 C 83.726562 185.597656 81.46875 186.289062 79.738281 187.785156 C 79.101562 188.328125 79.503906 189.472656 80.351562 189.484375 C 80.699219 189.496094 80.984375 189.328125 81.21875 189.082031 " fill-opacity="1" fill-rule="nonzero"/><path fill="#000000" d="M 121.085938 197.972656 C 125.636719 197.210938 129.1875 196.859375 133.988281 196.945312 C 135.808594 196.980469 137.628906 197.058594 139.445312 197.214844 C 140.148438 197.234375 140.890625 197.515625 141.574219 197.355469 C 142.507812 197.070312 142.28125 195.578125 141.304688 195.570312 C 135.917969 194.921875 130.453125 194.898438 125.0625 195.492188 C 123.433594 195.6875 121.8125 195.929688 120.203125 196.226562 C 119.75 196.328125 119.199219 196.328125 118.933594 196.765625 C 118.597656 197.257812 118.855469 197.984375 119.425781 198.164062 C 119.972656 198.296875 120.535156 198.023438 121.085938 197.972656 " fill-opacity="1" fill-rule="nonzero"/><path fill="#000000" d="M 124.625 223.9375 C 129.707031 223.316406 133.644531 222.945312 138.457031 222.660156 C 139.65625 222.589844 140.859375 222.585938 142.0625 222.546875 C 142.316406 222.558594 142.570312 222.46875 142.757812 222.296875 C 143.390625 221.757812 142.992188 220.628906 142.15625 220.617188 C 137.625 220.683594 133.109375 221.089844 128.605469 221.542969 C 126.855469 221.730469 125.109375 221.933594 123.367188 222.164062 C 122.957031 222.199219 122.5 222.25 122.273438 222.640625 C 121.925781 223.152344 122.191406 223.898438 122.777344 224.082031 C 123.382812 224.207031 124.015625 223.96875 124.625 223.9375 " fill-opacity="1" fill-rule="nonzero"/><path fill="#000000" d="M 66.464844 161.769531 C 66.6875 161.363281 66.511719 160.820312 66.132812 160.566406 C 65.773438 160.347656 65.320312 160.410156 64.914062 160.335938 C 63.710938 160.191406 62.507812 160.011719 61.308594 159.816406 C 57.054688 159.210938 52.214844 158.199219 49.652344 155.917969 C 49.5 155.8125 49.089844 155.292969 48.996094 155.175781 C 48.96875 155.125 48.9375 155.074219 48.914062 155.023438 C 48.910156 155.011719 48.910156 154.996094 48.90625 154.984375 C 49.421875 153.734375 51.503906 152.972656 54.257812 153.140625 C 57.105469 153.195312 60.796875 153.425781 62.765625 153.914062 C 63.957031 154.300781 64.5625 152.480469 63.367188 152.078125 C 60.910156 151.496094 58.363281 151.386719 55.851562 151.246094 C 53.824219 151.226562 51.699219 150.996094 49.789062 151.808594 C 46.765625 153.191406 45.832031 155.457031 48.742188 157.695312 C 52.441406 160.492188 57.179688 161.125 61.636719 161.816406 C 62.734375 161.984375 63.835938 162.136719 64.941406 162.253906 C 65.492188 162.332031 66.214844 162.390625 66.464844 161.769531 " fill-opacity="1" fill-rule="nonzero"/><path fill="#000000" d="M 66.734375 172.953125 C 66.652344 172.960938 66.570312 172.964844 66.484375 172.972656 C 66.5625 172.96875 66.648438 172.960938 66.734375 172.953125 " fill-opacity="1" fill-rule="nonzero"/><path fill="#000000" d="M 64.566406 173.105469 C 65.207031 173.082031 65.847656 173.03125 66.484375 172.972656 C 66.867188 172.988281 67.269531 172.785156 67.414062 172.421875 C 67.644531 172.007812 67.464844 171.453125 67.078125 171.199219 C 66.550781 170.886719 65.894531 171.15625 65.316406 171.125 C 63.933594 171.183594 62.546875 171.183594 61.164062 171.171875 C 58.050781 171.164062 54.179688 170.535156 52.503906 169.835938 C 52.335938 169.796875 51.890625 169.503906 51.722656 169.398438 C 51.691406 169.367188 51.664062 169.335938 51.636719 169.300781 C 51.992188 168.570312 54.523438 167.839844 57.054688 167.488281 C 60.039062 166.949219 62.117188 166.851562 64.730469 166.667969 C 65.707031 166.371094 65.46875 164.808594 64.445312 164.800781 C 61.890625 164.828125 59.34375 165.152344 56.824219 165.554688 C 54.875 165.917969 52.785156 166.121094 51.074219 167.195312 C 49.875 167.875 49.113281 169.445312 50.144531 170.605469 C 51.59375 172.011719 53.761719 172.285156 55.667969 172.648438 C 58.605469 173.171875 61.589844 173.214844 64.566406 173.105469 " fill-opacity="1" fill-rule="nonzero"/><path fill="#000000" d="M 59.4375 186.484375 C 62.464844 186.390625 65.429688 185.691406 68.386719 185.09375 C 69.15625 184.925781 69.929688 184.757812 70.691406 184.5625 C 71.144531 184.496094 71.640625 184.238281 71.691406 183.734375 C 71.804688 183.277344 71.496094 182.800781 71.058594 182.65625 C 70.449219 182.515625 69.828125 182.851562 69.21875 182.929688 C 67.523438 183.285156 65.820312 183.621094 64.117188 183.929688 C 60.953125 184.585938 57.402344 184.761719 54.78125 184.144531 C 53.304688 183.78125 53.132812 183.355469 53.011719 183.21875 C 52.875 182.6875 54.351562 181.304688 55.59375 180.949219 C 58.808594 179.792969 62.140625 179.039062 65.46875 178.304688 C 66.695312 178.027344 66.28125 176.144531 65.042969 176.414062 C 62.273438 177.03125 59.492188 177.632812 56.789062 178.503906 C 55.242188 178.992188 53.628906 179.453125 52.417969 180.582031 C 51.332031 181.5 50.484375 183.261719 51.5 184.519531 C 53.496094 186.621094 56.757812 186.425781 59.4375 186.484375 " fill-opacity="1" fill-rule="nonzero"/><path fill="#000000" d="M 66.792969 198.976562 C 67.835938 198.5 68.871094 198.007812 69.890625 197.484375 C 70.375 197.269531 70.964844 196.921875 70.863281 196.304688 C 70.773438 195.339844 69.703125 195.246094 69.046875 195.75 C 68.335938 196.105469 67.617188 196.441406 66.898438 196.777344 C 62.269531 198.914062 58.089844 200.9375 54.050781 199.625 C 48.953125 198.125 54.804688 194.882812 60.371094 192.582031 C 62.285156 191.773438 63.574219 191.511719 65.816406 190.773438 C 66.683594 190.238281 66.046875 188.800781 65.0625 189.058594 C 61.761719 189.863281 58.582031 191.128906 55.554688 192.664062 C 53.722656 193.679688 51.660156 194.65625 50.5625 196.535156 C 48.773438 199.769531 52.675781 201.699219 55.398438 201.894531 C 59.4375 202.464844 63.210938 200.585938 66.792969 198.976562 " fill-opacity="1" fill-rule="nonzero"/><path fill="#fff7e1" d="M 235.0625 119.425781 C 235.769531 119.101562 236.722656 119.097656 237.238281 118.480469 C 237.722656 117.792969 237.03125 116.796875 236.214844 117.003906 C 233.738281 118 229.234375 118.921875 227.554688 118.957031 C 226.300781 118.898438 226.207031 120.8125 227.464844 120.882812 C 230.042969 120.707031 232.605469 120.25 235.0625 119.425781 " fill-opacity="1" fill-rule="nonzero"/><path fill="#fff7e1" d="M 222.226562 122.640625 C 223.203125 122.347656 222.960938 120.796875 221.945312 120.785156 C 219.140625 120.75 216.328125 120.75 213.53125 120.492188 C 212.285156 120.4375 212.195312 122.335938 213.441406 122.40625 C 216.347656 122.644531 219.328125 122.792969 222.226562 122.640625 " fill-opacity="1" fill-rule="nonzero"/><path fill="#fff7e1" d="M 227.742188 125.957031 C 229.125 125.625 230.472656 125.160156 231.792969 124.636719 C 232.488281 124.265625 233.582031 124.261719 233.90625 123.445312 C 234.195312 122.640625 233.257812 121.839844 232.507812 122.261719 C 230.46875 123.03125 229.671875 123.421875 227.710938 123.929688 C 226.988281 124.222656 225.992188 124.125 225.476562 124.773438 C 225.125 125.289062 225.398438 126.050781 225.992188 126.238281 C 226.578125 126.386719 227.167969 126.058594 227.742188 125.957031 " fill-opacity="1" fill-rule="nonzero"/><path fill="#fff7e1" d="M 73.007812 232.609375 C 79.234375 230.707031 85.207031 229.824219 91.191406 229.652344 C 96.238281 229.453125 101.289062 229.460938 106.335938 229.246094 C 107.136719 229.113281 108.148438 229.375 108.832031 228.910156 C 109.429688 228.402344 109.054688 227.328125 108.261719 227.316406 C 100.691406 227.777344 93.082031 227.464844 85.523438 228.191406 C 80.746094 228.675781 76.035156 229.722656 71.46875 231.199219 C 70.710938 231.339844 70.511719 232.433594 71.171875 232.832031 C 71.761719 233.195312 72.410156 232.726562 73.007812 232.609375 " fill-opacity="1" fill-rule="nonzero"/><path fill="#fff7e1" d="M 125.535156 228.734375 C 126.769531 228.789062 126.863281 226.90625 125.625 226.839844 C 122.359375 226.769531 119.0625 226.839844 115.824219 227.203125 C 114.882812 227.488281 115.113281 228.992188 116.097656 229.003906 C 119.238281 228.796875 122.386719 228.628906 125.535156 228.734375 " fill-opacity="1" fill-rule="nonzero"/><path fill="#fff7e1" d="M 86.160156 207.96875 C 91.023438 206.765625 97.84375 205.597656 101.902344 205.339844 C 105.378906 205.035156 108.867188 204.964844 112.347656 204.734375 C 113.542969 204.792969 113.648438 202.957031 112.4375 202.890625 C 107.054688 203.203125 101.652344 203.34375 96.304688 204.109375 C 92.417969 204.785156 88.453125 205.394531 84.691406 206.550781 C 84.164062 206.867188 84.191406 207.71875 84.707031 208.03125 C 85.164062 208.332031 85.679688 208.058594 86.160156 207.96875 " fill-opacity="1" fill-rule="nonzero"/><path fill="#fff7e1" d="M 123.078125 203.589844 C 125.121094 203.285156 125.933594 203.292969 128.054688 203.171875 C 129.296875 203.226562 129.390625 201.332031 128.144531 201.261719 C 125.691406 201.449219 123.09375 201.394531 120.753906 202.1875 C 120.109375 202.582031 120.285156 203.640625 120.996094 203.851562 C 121.6875 203.980469 122.386719 203.636719 123.078125 203.589844 " fill-opacity="1" fill-rule="nonzero"/><path fill="#fff7e1" d="M 100.847656 190.546875 C 105.042969 190.058594 108.101562 189.773438 112.441406 189.671875 C 113.578125 189.710938 114.710938 189.820312 115.847656 189.921875 C 116.089844 189.933594 116.332031 189.84375 116.515625 189.679688 C 117.121094 189.167969 116.734375 188.082031 115.9375 188.070312 C 112.15625 187.59375 108.355469 187.96875 104.578125 188.277344 C 104.101562 188.316406 101.460938 188.59375 100.117188 188.765625 C 99.492188 188.910156 98.648438 188.734375 98.238281 189.332031 C 97.90625 189.824219 98.164062 190.542969 98.730469 190.722656 C 99.421875 190.832031 100.144531 190.578125 100.847656 190.546875 " fill-opacity="1" fill-rule="nonzero"/><path fill="#fff7e1" d="M 84.433594 120.101562 C 89.621094 119.511719 96.640625 119.628906 102.671875 119.480469 C 104.773438 119.433594 106.875 119.410156 108.972656 119.367188 C 109.21875 119.378906 109.460938 119.289062 109.640625 119.128906 C 110.246094 118.613281 109.863281 117.527344 109.0625 117.515625 C 104.257812 117.585938 99.453125 117.71875 94.648438 117.746094 C 91.992188 117.789062 89.332031 117.84375 86.683594 118.0625 C 85.539062 118.242188 84.261719 118.105469 83.1875 118.515625 C 82.648438 118.839844 82.675781 119.707031 83.207031 120.027344 C 83.582031 120.277344 84.019531 120.128906 84.433594 120.101562 " fill-opacity="1" fill-rule="nonzero"/><path fill="#fff7e1" d="M 72.972656 105.945312 C 73.089844 105.945312 73.183594 105.933594 73.148438 105.933594 C 80.351562 105.363281 87.59375 105.125 94.757812 104.109375 C 99.429688 103.335938 104.199219 102.648438 108.695312 101.160156 C 109.515625 100.652344 108.917969 99.277344 107.976562 99.523438 C 96.074219 102.933594 84.835938 103.242188 72.78125 104.15625 C 71.910156 104.324219 71.835938 105.644531 72.695312 105.90625 C 72.765625 105.9375 72.875 105.945312 72.972656 105.945312 " fill-opacity="1" fill-rule="nonzero"/><path fill="#fff7e1" d="M 66.191406 84.386719 C 68.488281 83.699219 72.144531 83.660156 75.550781 83.550781 C 79.007812 83.429688 82.460938 83.160156 85.902344 82.816406 C 92.003906 82.183594 98.046875 81.109375 104.058594 79.914062 C 105.21875 79.652344 104.84375 77.855469 103.652344 78.113281 C 96.179688 79.617188 88.015625 80.9375 81.175781 81.375 C 76.0625 81.910156 70.820312 81.40625 65.785156 82.542969 C 65.339844 82.707031 64.792969 82.875 64.636719 83.378906 C 64.351562 84.3125 65.441406 84.960938 66.191406 84.386719 " fill-opacity="1" fill-rule="nonzero"/><path fill="#fff7e1" d="M 112.035156 78.375 C 113.585938 77.945312 115.105469 77.425781 116.648438 76.96875 C 117.128906 76.785156 117.757812 76.785156 118.066406 76.320312 C 118.53125 75.65625 117.867188 74.695312 117.078125 74.894531 C 114.894531 75.523438 112.746094 76.261719 110.554688 76.875 C 109.703125 76.957031 109.363281 78.125 110.109375 78.59375 C 110.722656 78.964844 111.410156 78.492188 112.035156 78.375 " fill-opacity="1" fill-rule="nonzero"/><path fill="#fff7e1" d="M 118.828125 101.0625 C 120.070312 100.835938 121.328125 100.699219 122.582031 100.574219 C 123.328125 100.398438 124.355469 100.679688 124.867188 99.992188 C 125.339844 99.3125 124.660156 98.332031 123.855469 98.539062 C 122.003906 98.726562 120.148438 98.867188 118.324219 99.226562 C 117.855469 99.355469 117.304688 99.328125 116.890625 99.597656 C 116.492188 99.839844 116.386719 100.394531 116.589844 100.796875 C 117.050781 101.660156 118.085938 101.140625 118.828125 101.0625 " fill-opacity="1" fill-rule="nonzero"/><path fill="#fff7e1" d="M 46.128906 144.441406 C 46.816406 144.109375 46.730469 143.015625 45.996094 142.800781 C 42.46875 141.472656 38.863281 140.378906 35.25 139.320312 C 32.628906 138.609375 29.574219 137.628906 26.894531 137.554688 C 26.300781 137.726562 26.113281 138.558594 26.535156 138.996094 C 26.949219 139.410156 27.601562 139.308594 28.132812 139.453125 C 31.660156 140.019531 36.792969 141.636719 40.964844 142.929688 C 42.472656 143.40625 43.945312 143.972656 45.4375 144.496094 C 45.664062 144.574219 45.917969 144.550781 46.128906 144.441406 " fill-opacity="1" fill-rule="nonzero"/><path fill="#fff7e1" d="M 29.441406 159.082031 C 32.472656 159.277344 35.507812 159.507812 38.5 160.046875 C 39.675781 160.101562 39.769531 158.304688 38.589844 158.242188 C 34.761719 157.570312 30.875 157.3125 26.996094 157.152344 C 26.003906 157.128906 25.007812 157.121094 24.015625 157.148438 C 23.554688 157.128906 22.988281 157.175781 22.796875 157.671875 C 22.582031 158.058594 22.75 158.574219 23.113281 158.8125 C 23.667969 159.105469 24.355469 158.878906 24.964844 158.933594 C 26.457031 158.929688 27.949219 158.984375 29.441406 159.082031 " fill-opacity="1" fill-rule="nonzero"/><path fill="#fff7e1" d="M 22.839844 179.402344 C 24.328125 178.871094 25.835938 178.394531 27.34375 177.921875 C 28.679688 177.507812 30.011719 177.074219 31.390625 176.8125 C 32.164062 176.609375 33.050781 176.675781 33.769531 176.324219 C 34.585938 175.816406 33.984375 174.460938 33.058594 174.707031 C 30.03125 175.074219 27.152344 176.078125 24.265625 177.011719 C 23.328125 177.320312 22.398438 177.648438 21.476562 177.992188 C 20.953125 178.144531 20.304688 178.441406 20.410156 179.09375 C 20.761719 180.652344 22.257812 179.515625 22.839844 179.402344 " fill-opacity="1" fill-rule="nonzero"/><path fill="#fff7e1" d="M 24.75 200.558594 C 26.199219 199.773438 27.652344 198.996094 29.109375 198.230469 C 31.808594 196.746094 33.523438 196.058594 36.40625 195.25 C 37.5625 194.980469 37.167969 193.214844 36.003906 193.464844 C 32.882812 194.269531 29.972656 195.609375 27.171875 197.183594 C 26.082031 197.769531 24.996094 198.355469 23.910156 198.945312 C 23.703125 199.054688 23.539062 199.246094 23.464844 199.46875 C 23.199219 200.207031 24.0625 200.949219 24.75 200.558594 " fill-opacity="1" fill-rule="nonzero"/><path fill="#fff7e1" d="M 35.742188 210.628906 C 36.863281 209.9375 37.988281 209.242188 39.121094 208.570312 C 40.492188 207.746094 41.910156 207.003906 43.386719 206.382812 C 44.175781 205.96875 45.144531 205.792969 45.828125 205.230469 C 46.507812 204.515625 45.554688 203.328125 44.699219 203.816406 C 41.503906 205.050781 38.5 206.679688 35.625 208.539062 C 35.027344 208.910156 34.429688 209.285156 33.835938 209.660156 C 33.519531 209.824219 33.292969 210.195312 33.351562 210.550781 C 33.363281 211.003906 33.777344 211.367188 34.214844 211.390625 C 34.800781 211.382812 35.238281 210.878906 35.742188 210.628906 " fill-opacity="1" fill-rule="nonzero"/><path fill="#fff7e1" d="M 219.765625 127.421875 C 220.359375 127.367188 220.992188 127.457031 221.570312 127.308594 C 222.535156 127.019531 222.292969 125.488281 221.292969 125.476562 C 220.515625 125.503906 219.742188 125.53125 218.96875 125.554688 C 218.152344 125.488281 217.652344 126.554688 218.21875 127.140625 C 218.617188 127.589844 219.234375 127.417969 219.765625 127.421875 " fill-opacity="1" fill-rule="nonzero"/><path fill="#fff7e1" d="M 208.089844 120.257812 C 208.71875 119.726562 208.316406 118.609375 207.492188 118.597656 C 206.527344 118.621094 205.519531 118.363281 204.578125 118.507812 C 203.609375 118.800781 203.851562 120.339844 204.855469 120.351562 C 205.703125 120.433594 206.554688 120.460938 207.402344 120.503906 C 207.652344 120.519531 207.90625 120.425781 208.089844 120.257812 " fill-opacity="1" fill-rule="nonzero"/><path fill="#fff7e1" d="M 129.46875 73.660156 C 130.480469 73.378906 131.503906 73.144531 132.550781 73.019531 C 133.183594 72.875 133.921875 72.984375 134.488281 72.664062 C 135.335938 72.140625 134.710938 70.738281 133.753906 70.988281 C 132.074219 71.222656 130.304688 71.332031 128.734375 71.988281 C 127.886719 72.511719 128.511719 73.910156 129.46875 73.660156 " fill-opacity="1" fill-rule="nonzero"/><path fill="#fff7e1" d="M 110.226562 84.0625 C 112.054688 83.300781 113.816406 83.191406 115.378906 82.65625 C 116.222656 82.136719 115.601562 80.738281 114.644531 80.992188 C 111.84375 81.417969 109.21875 82.464844 106.554688 83.375 C 105.929688 83.613281 105.210938 83.648438 104.625 83.964844 C 103.992188 84.34375 104.164062 85.382812 104.859375 85.585938 C 106.5625 85.609375 108.566406 84.546875 110.226562 84.0625 " fill-opacity="1" fill-rule="nonzero"/><path fill="#fff7e1" d="M 109.667969 210.40625 C 113.589844 209.964844 117.636719 209.808594 121.480469 209.046875 C 122.316406 208.53125 121.699219 207.144531 120.753906 207.390625 C 117.746094 207.730469 114.742188 208.074219 111.730469 208.371094 C 110.910156 208.453125 110.085938 208.527344 109.265625 208.605469 C 109.03125 208.652344 108.824219 208.800781 108.695312 209 C 108.234375 209.65625 108.894531 210.605469 109.667969 210.40625 " fill-opacity="1" fill-rule="nonzero"/><path fill="#fff7e1" d="M 106.191406 235.425781 C 107.585938 235.363281 108.976562 235.300781 110.367188 235.222656 C 113.011719 235.011719 115.691406 234.917969 118.324219 234.699219 C 119.25 234.414062 119.023438 232.9375 118.054688 232.925781 C 114.582031 233.046875 111.125 233.382812 107.652344 233.515625 C 106.757812 233.558594 105.863281 233.59375 104.96875 233.632812 C 104.609375 233.613281 104.226562 233.820312 104.09375 234.160156 C 103.871094 234.558594 104.046875 235.089844 104.417969 235.332031 C 104.949219 235.636719 105.609375 235.394531 106.191406 235.425781 " fill-opacity="1" fill-rule="nonzero"/><path fill="#fff7e1" d="M 353.136719 134.527344 C 355.292969 133.417969 357.460938 132.316406 359.367188 130.804688 C 361.800781 129.121094 364.085938 127.179688 365.746094 124.699219 C 370.0625 117.386719 367.605469 111.914062 361.066406 107.285156 C 353.046875 102 342.875 102.082031 333.695312 103.394531 C 330.457031 103.785156 327.234375 104.289062 324.058594 105.050781 C 323.367188 105.289062 322.449219 105.191406 321.964844 105.804688 C 321.636719 106.300781 321.886719 107.023438 322.457031 107.203125 C 323.511719 107.285156 324.816406 106.742188 325.902344 106.605469 C 328.382812 106.070312 330.890625 105.710938 333.40625 105.386719 C 341.367188 104.1875 350.734375 103.976562 357.929688 107.710938 C 361.953125 109.941406 365.484375 113.074219 365.957031 117.105469 C 366.183594 118.035156 365.359375 121.65625 364.65625 122.777344 C 363.722656 124.417969 362.964844 125.273438 361.949219 126.320312 C 359.769531 128.355469 357.570312 129.941406 355.496094 131.210938 C 354.445312 131.808594 353.359375 132.34375 352.296875 132.910156 C 352.089844 133.023438 351.925781 133.210938 351.855469 133.433594 C 351.582031 134.171875 352.449219 134.917969 353.136719 134.527344 " fill-opacity="1" fill-rule="nonzero"/><path fill="#fff7e1" d="M 314.972656 109.476562 C 315.851562 109.160156 316.746094 108.90625 317.632812 108.632812 C 317.875 108.578125 318.09375 108.425781 318.230469 108.21875 C 318.707031 107.53125 318.023438 106.542969 317.210938 106.75 C 315.65625 107.195312 314.125 107.707031 312.621094 108.304688 C 311.871094 108.664062 311.96875 109.851562 312.765625 110.085938 C 313.566406 110.253906 314.9375 109.382812 314.972656 109.476562 " fill-opacity="1" fill-rule="nonzero"/></svg>